<svg xmlns="http://www.w3.org/2000/svg" viewBox="0 0 64 64">
  <defs>
    <linearGradient id="bg" x1="0%" y1="0%" x2="100%" y2="100%">
      <stop offset="0%" stop-color="#6366f1"/>
      <stop offset="100%" stop-color="#7c3aed"/>
    </linearGradient>
  </defs>
  <rect width="64" height="64" rx="14" fill="url(#bg)"/>
  <!-- Gear with 8 teeth -->
  <g transform="translate(32,32)">
    <path d="M-3-24h6l1.5 5.2a18 18 0 0 1 5.3 2.2l4.8-2.2 4.2 4.2-2.2 4.8a18 18 0 0 1 2.2 5.3L24-3v6l-5.2 1.5a18 18 0 0 1-2.2 5.3l2.2 4.8-4.2 4.2-4.8-2.2a18 18 0 0 1-5.3 2.2L3 24h-6l-1.5-5.2a18 18 0 0 1-5.3-2.2l-4.8 2.2-4.2-4.2 2.2-4.8a18 18 0 0 1-2.2-5.3L-24 3v-6l5.2-1.5a18 18 0 0 1 2.2-5.3l-2.2-4.8 4.2-4.2 4.8 2.2a18 18 0 0 1 5.3-2.2Z"
      fill="none" stroke="rgba(255,255,255,0.9)" stroke-width="2" stroke-linejoin="round"/>
    <circle r="9" fill="none" stroke="#fff" stroke-width="2.5"/>
  </g>
  <!-- Terminal cursor -->
  <text x="24.5" y="38" fill="#fff" font-family="monospace" font-size="15" font-weight="bold">&gt;_</text>
</svg>
